# xmcd
#
# Track frame offsets: 
#        150
#        9372
#        19997
#        30792
#        40622
#        55330
#        66012
#        75555
#        86862
#        97507
#        109457
#        119847
#        130395
#        142667
#        154830
#        170095
#        181502
#        193500
#        205192
#        218280
#        228525
#        241812
#        256150
#        268952
#
# Disc length: 3727 seconds
#
# Revision: 0
# Processed by: cddbd v1.5PL3 Copyright (c) Steve Scherf et al.
# Submitted via: ExactAudioCopy v0.95a4
#
DISCID=380e8d18
DTITLE=The Louvin Brothers - Country love ballads\\Tribute to the Delm
DTITLE=ore Brothers
DYEAR=1959
DGENRE=Country
TTITLE0=Are you wasting my time
TTITLE1=If I could only win your love
TTITLE2=Today
TTITLE3=Read what's in my heart
TTITLE4=I wonder if you know
TTITLE5=Memories and Tears
TTITLE6=On my way to the show
TTITLE7=My heart was trampled on the street
TTITLE8=She will get lonesome
TTITLE9=Red hen hop
TTITLE10=Blue
TTITLE11=Send me the pillow (you dream on)
TTITLE12=Weary lonesome blues
TTITLE13=Midnight special
TTITLE14=Blues stay away from me
TTITLE15=Sand mountain blues
TTITLE16=Southern moon
TTITLE17=Nashville blues
TTITLE18=Brown's ferry blues
TTITLE19=When it's time for the whippoorwill to sing
TTITLE20=Freight train blues (boogie)
TTITLE21=Put me on the trail to Carolina
TTITLE22=Gonna lay down my old guitar
TTITLE23=The last old shovel
EXTD=
EXTT0=
EXTT1=
EXTT2=
EXTT3=
EXTT4=
EXTT5=
EXTT6=
EXTT7=
EXTT8=
EXTT9=
EXTT10=
EXTT11=
EXTT12=
EXTT13=
EXTT14=
EXTT15=
EXTT16=
EXTT17=
EXTT18=
EXTT19=
EXTT20=
EXTT21=
EXTT22=
EXTT23=
PLAYORDER=
